PathFileType	4	(X/Y/Z)	F:\MotionCapture\20160217\3\Generated_files\EMG_test06-Dynamic.trc
DataRate	CameraRate	NumFrames	NumMarkers	Units	OrigDataRate	OrigDataStartFrame	OrigNumFrames
120.00	120.00	        4	39	mm	120.00	75	        99
Frame#	Time	Top.Head			Front.Head			Rear.Head			R.Shoulder			R.Offset			R.Elbow			R.Wrist			L.Shoulder			L.Elbow			L.Wrist			R.ASIS			L.ASIS			V.Sacral			R.Thigh			R.Knee			R.Shank			R.Ankle			R.Heel			R.Toe			L.Thigh			L.Knee			L.Shank			L.Ankle			L.Heel			L.Toe			R1			R2			R3			R4			R5			R6			R7			L1			L2			L3			L4			L5			L6			L7			V_Mid_ASIS			V_Pelvis_Origin			V_R.Hip_JC			V_L.Hip_JC			V_R.Knee_JC			V_L.Knee_JC			V_R.Ankle_JC			V_L.Ankle_JC			V_Mid_Hip			V_Mid_Shoulder			V_R.Hand			V_L.Hand			V_R.Toe_Offset_Static			V_L.Toe_Offset_Static			V_R.Toe_Offset			V_L.Toe_Offset			
		X1	Y1	Z1	X2	Y2	Z2	X3	Y3	Z3	X4	Y4	Z4	X5	Y5	Z5	X6	Y6	Z6	X7	Y7	Z7	X8	Y8	Z8	X9	Y9	Z9	X10	Y10	Z10	X11	Y11	Z11	X12	Y12	Z12	X13	Y13	Z13	X14	Y14	Z14	X15	Y15	Z15	X16	Y16	Z16	X17	Y17	Z17	X18	Y18	Z18	X19	Y19	Z19	X20	Y20	Z20	X21	Y21	Z21	X22	Y22	Z22	X23	Y23	Z23	X24	Y24	Z24	X25	Y25	Z25	X26	Y26	Z26	X27	Y27	Z27	X28	Y28	Z28	X29	Y29	Z29	X30	Y30	Z30	X31	Y31	Z31	X32	Y32	Z32	X33	Y33	Z33	X34	Y34	Z34	X35	Y35	Z35	X36	Y36	Z36	X37	Y37	Z37	X38	Y38	Z38	X39	Y39	Z39	

75	0.617	2365.54321	24.08720	1717.59119	2286.33350	23.39693	1604.04163	2489.44165	12.82452	1684.36426	2479.67896	207.89153	1444.36829	2630.81494	-40.90705	1287.21936	2443.65649	298.74390	1113.99243	2244.63989	269.57657	945.43347	2484.31177	-198.35100	1425.87744	2524.04102	-267.89090	1094.47571	2410.10034	-248.33791	864.08344	2427.95361	179.18646	957.75793	2426.72534	-110.23064	949.22748	2652.14380	33.21112	957.97083	2349.52246	186.33690	595.44708	2411.03540	233.31041	485.31033	2438.17944	179.16281	246.98920	2517.34619	255.30574	93.36044	2582.48730	188.78326	62.30804	2376.63232	246.91496	61.03694	2390.84839	-47.49477	630.98358	2480.27783	-89.95348	470.28806	2468.46191	-7.52208	334.89050	2535.67212	-51.93142	64.95854	2597.39746	6.63539	48.98077	2394.03076	-53.01972	46.89272	2324.94800	228.56758	48.32380	2366.27417	213.09299	67.22021	2461.40576	172.52762	77.24479	2533.58716	163.86194	60.32772	2556.19995	236.29112	64.29744	2479.77588	267.59100	50.26117	2416.51489	278.97916	48.87720	2346.97461	-29.28473	41.04409	2381.21069	-14.37046	50.86781	2473.87817	33.04212	54.66885	2557.45337	36.56761	50.73717	2573.51245	-34.57248	47.63446	2500.89380	-65.69716	40.56810	2437.25806	-84.07905	44.08774																																																	2980.82153	135.35037	-144.38658	1934.92456	33.11094	252.18040	
76	0.625	2364.98975	24.23499	1717.15662	2283.71313	23.66430	1603.61230	2488.80786	13.16586	1684.49536	2480.27710	208.19095	1444.24561	2630.65820	-40.85265	1287.04077	2442.43335	298.51746	1113.83777	2242.78711	268.06738	946.26929	2484.19653	-197.92003	1426.02197	2522.60449	-267.21506	1094.38037	2406.18896	-246.06137	865.18292	2427.52173	179.70012	958.05164	2426.26294	-109.98857	949.05939	2651.46729	33.50395	957.91089	2349.06201	186.39136	595.48987	2410.48853	233.08786	485.16534	2437.54248	178.51010	246.72687	2516.74878	254.51065	93.03493	2582.41040	188.44931	62.69702	2376.21265	245.01421	60.25822	2390.78833	-47.05533	630.73102	2479.69067	-89.73421	470.30817	2468.07593	-7.36239	334.72021	2535.68335	-51.95275	65.09715	2597.38892	6.68690	49.00165	2393.95557	-52.92204	46.79400	2324.60840	225.84341	47.58414	2366.09009	211.76062	66.42780	2462.01367	170.99438	76.97941	2533.90918	162.91876	60.68579	2555.77783	235.78320	64.11000	2478.96167	267.89142	51.12947	2415.04297	276.76904	48.51673	2346.93774	-29.28823	41.04540	2381.17822	-14.29171	50.81020	2473.92529	33.17826	54.37960	2557.41724	36.61109	50.76949	2573.45947	-34.60915	47.65133	2500.85083	-65.67994	40.64168	2437.23267	-84.07514	44.03959																																																	2975.31421	133.28011	-144.17261	
77	0.633	2364.10083	24.32546	1716.71399	2283.25464	24.06051	1602.70605	2488.27124	13.69944	1684.51367	2480.53027	208.52977	1444.04089	2630.55591	-40.82452	1286.92175	2441.84521	298.39139	1113.51428	2241.47803	266.64407	947.25214	2483.98535	-197.41031	1426.08264	2520.89453	-266.35117	1093.43811	2402.23193	-243.05141	867.11639	2427.14526	180.14224	958.16772	2425.79736	-109.67610	949.14526	2650.64600	33.94244	957.64844	2348.65259	186.36041	595.27887	2410.57251	233.27013	485.00864	2437.44409	178.19174	246.80443	2516.04272	253.87904	92.89367	2581.93701	187.91930	62.56272	2375.55688	243.28389	59.07876	2390.50342	-46.59978	630.66071	2479.27563	-89.61794	470.28638	2467.77100	-7.20330	334.70587	2535.63721	-51.97721	65.05058	2597.40723	6.67911	49.06200	2393.90039	-52.86340	46.77291	2324.54565	223.54207	46.48941	2365.68970	209.20711	65.67226	2461.45508	169.90594	76.80595	2533.98413	162.13406	60.92641	2554.84058	234.73775	63.43587	2478.45972	266.56787	50.61325	2413.38745	276.23279	48.53170	2346.84888	-29.23318	40.96768	2380.75317	-14.15213	50.77844	2473.94922	33.23314	54.30853	2557.43970	36.66938	50.76680	2573.50342	-34.60325	47.70815	2500.80615	-65.64276	40.55163	2437.27393	-84.04283	44.04915																																																	2970.46582	131.49806	-143.80455	
78	0.642	2363.33862	24.49195	1716.42834	2282.94629	24.32854	1601.75269	2487.73462	14.18882	1684.65540	2481.20728	209.23102	1443.84595	2630.42529	-40.78106	1286.69470	2440.84595	297.99628	1113.56079	2239.41040	264.93488	948.07111	2483.77271	-196.80006	1426.06763	2519.38965	-265.81027	1093.56445	2398.34521	-240.10646	868.46649	2426.40527	180.46184	958.50494	2425.09326	-109.31577	949.35492	2650.21655	34.27597	957.54431	2348.44263	186.43672	594.89600	2410.16406	233.07295	484.84427	2437.63989	177.86229	246.63080	2516.11035	252.44150	92.19064	2581.58667	188.81044	63.00066	2375.24365	241.84975	58.15742	2389.73462	-45.98348	630.69086	2478.88477	-89.50164	470.22571	2467.25220	-6.80530	334.72089	2535.68652	-51.92916	65.17525	2597.41772	6.63190	49.04547	2393.82300	-52.68991	46.78153	2324.16406	221.84921	45.53093	2365.66113	207.89799	64.58347	2461.33105	169.29503	76.45146	2533.98047	161.84578	61.22903	2555.47070	234.86359	64.18649	2478.23682	264.34204	48.96220	2412.70288	275.19888	48.23604	2346.85571	-29.03255	41.00077	2380.71484	-14.07681	50.78073	2473.83594	33.20214	54.29411	2557.41382	36.69340	50.71910	2573.48340	-34.59715	47.71082	2500.93481	-65.71418	40.75784	2437.25562	-84.05373	44.03512	
